<svg xmlns="http://www.w3.org/2000/svg" width="1024" height="1024" viewBox="0 0 1024 1024">
<g>
<path d="M 370.14 595.41 C320.11,604.90 272.07,564.48 272.01,512.86 C272.00,503.88 274.53,491.05 278.08,482.18 C284.32,466.54 285.77,464.91 361.33,389.25 C400.46,350.06 432.94,318.00 433.50,318.00 C434.06,318.00 443.45,326.94 454.36,337.86 L 474.20 357.72 L 464.35 367.07 C458.93,372.21 427.37,403.43 394.22,436.46 C331.05,499.37 329.98,500.58 328.42,510.62 C326.89,520.55 333.97,532.39 344.53,537.56 C351.52,540.98 360.11,540.75 367.19,536.97 C370.36,535.27 405.02,501.40 478.17,428.50 C536.67,370.20 585.76,321.00 587.27,319.17 C588.78,317.34 590.35,315.99 590.76,316.17 C591.17,316.35 623.28,348.45 662.12,387.50 C737.00,462.79 739.99,466.14 746.29,481.66 C757.58,509.50 753.33,540.11 734.80,564.47 C718.63,585.72 690.83,598.37 664.04,596.67 C645.98,595.52 630.52,589.24 616.31,577.26 C608.29,570.50 557.12,519.30 554.31,515.23 C552.77,513.00 553.13,512.55 571.62,493.73 C582.00,483.15 590.99,474.37 591.59,474.21 C592.18,474.05 606.22,487.67 622.77,504.49 C657.37,539.62 658.77,540.64 671.04,539.77 C685.66,538.72 696.35,527.20 696.34,512.50 C696.34,503.86 694.15,500.42 677.83,483.39 C651.07,455.47 592.24,396.00 591.37,396.00 C590.89,396.00 549.33,437.14 499.00,487.41 C432.41,553.94 405.61,580.07 400.57,583.41 C392.07,589.03 381.21,593.32 370.14,595.41 ZM 491.72 649.21 C459.70,680.95 433.27,706.94 432.99,706.96 C432.71,706.98 424.27,698.78 414.24,688.74 L 396.01 670.49 L 513.06 553.50 L 531.50 572.50 L 549.95 591.50 ZM 531.50 297.00 C521.06,307.45 512.29,316.00 512.00,316.00 C511.71,316.00 502.94,307.45 492.50,297.00 L 473.51 277.99 L 512.00 239.51 L 531.24 258.75 L 550.49 277.99 ZM 610.86 651.87 L 627.73 669.50 L 609.11 688.69 L 590.50 707.89 L 571.34 689.09 L 552.18 670.30 L 571.53 650.97 C588.26,634.26 591.08,631.82 592.44,632.95 C593.30,633.66 601.59,642.18 610.86,651.87 ZM 548.50 748.87 C548.50,749.32 540.37,757.60 530.43,767.28 L 512.35 784.87 L 474.52 747.00 L 493.00 728.50 C503.16,718.33 511.78,710.00 512.15,710.00 C513.08,710.00 548.50,747.87 548.50,748.87 Z" fill="rgb(0,0,0)"/>
<path d="M 0.00 512.00 L 0.00 0.00 L 512.00 0.00 L 1024.00 0.00 L 1024.00 512.00 L 1024.00 1024.00 L 512.00 1024.00 L 0.00 1024.00 L 0.00 512.00 ZM 548.50 748.87 C548.50,747.87 513.08,710.00 512.15,710.00 C511.78,710.00 503.16,718.33 493.00,728.50 L 474.52 747.00 L 493.44 765.94 L 512.35 784.87 L 530.43 767.28 C540.37,757.60 548.50,749.32 548.50,748.87 ZM 610.86 651.87 C601.59,642.18 593.30,633.66 592.44,632.95 C591.08,631.82 588.26,634.26 571.53,650.97 L 552.18 670.30 L 571.34 689.09 L 590.50 707.89 L 609.11 688.69 L 627.73 669.50 L 610.86 651.87 ZM 491.72 649.21 L 549.95 591.50 L 531.50 572.50 L 513.06 553.50 L 454.53 611.99 L 396.01 670.49 L 414.24 688.74 C424.27,698.78 432.71,706.98 432.99,706.96 C433.27,706.94 459.70,680.95 491.72,649.21 ZM 370.14 595.41 C381.21,593.32 392.07,589.03 400.57,583.41 C405.61,580.07 432.41,553.94 499.00,487.41 C549.33,437.14 590.89,396.00 591.37,396.00 C592.24,396.00 651.07,455.47 677.83,483.39 C694.15,500.42 696.34,503.86 696.34,512.50 C696.35,527.20 685.66,538.72 671.04,539.77 C658.77,540.64 657.37,539.62 622.77,504.49 C606.22,487.67 592.18,474.05 591.59,474.21 C590.99,474.37 582.00,483.15 571.62,493.73 C553.13,512.55 552.77,513.00 554.31,515.23 C557.12,519.30 608.29,570.50 616.31,577.26 C630.52,589.24 645.98,595.52 664.04,596.67 C690.83,598.37 718.63,585.72 734.80,564.47 C753.33,540.11 757.58,509.50 746.29,481.66 C739.99,466.14 737.00,462.79 662.12,387.50 C623.28,348.45 591.17,316.35 590.76,316.17 C590.35,315.99 588.78,317.34 587.27,319.17 C585.76,321.00 536.67,370.20 478.17,428.50 C405.02,501.40 370.36,535.27 367.19,536.97 C360.11,540.75 351.52,540.98 344.53,537.56 C333.97,532.39 326.89,520.55 328.42,510.62 C329.98,500.58 331.05,499.37 394.22,436.46 C427.37,403.43 458.93,372.21 464.35,367.07 L 474.20 357.72 L 454.36 337.86 C443.45,326.94 434.06,318.00 433.50,318.00 C432.94,318.00 400.46,350.06 361.33,389.25 C285.77,464.91 284.32,466.54 278.08,482.18 C274.53,491.05 272.00,503.88 272.01,512.86 C272.07,564.48 320.11,604.90 370.14,595.41 ZM 531.50 297.00 L 550.49 277.99 L 531.24 258.75 L 512.00 239.51 L 492.76 258.75 L 473.51 277.99 L 492.50 297.00 C502.94,307.45 511.71,316.00 512.00,316.00 C512.29,316.00 521.06,307.45 531.50,297.00 Z" fill="rgb(254,254,254)"/>
</g>
</svg>